HIERARCHY
ROOT reference
{
  OFFSET 0 0 0
  CHANNELS 6 Xposition Yposition Zposition Zrotation Xrotation Yrotation
  JOINT Hips
  {
    OFFSET 339.145 90.8604 236.464
    CHANNELS 3 Zrotation Xrotation Yrotation
    JOINT RightUpLeg
    {
      OFFSET -9.24113 -1.522 -0.0337757
      CHANNELS 3 Zrotation Xrotation Yrotation
      JOINT RightLeg
      {
        OFFSET 0.0344394 -41.8985 0.100154
        CHANNELS 3 Zrotation Xrotation Yrotation
        JOINT RightFoot
        {
          OFFSET -0.415571 -42.0751 0.023027
          CHANNELS 3 Zrotation Xrotation Yrotation
          End Site
          {
            OFFSET 0 -7.69 17.5
          }
        }
      }
    }
    JOINT LeftUpLeg
    {
      OFFSET 9.30897 -1.67379 -0.0291548
      CHANNELS 3 Zrotation Xrotation Yrotation
      JOINT LeftLeg
      {
        OFFSET 0.0832755 -41.864 -0.14338
        CHANNELS 3 Zrotation Xrotation Yrotation
        JOINT LeftFoot
        {
          OFFSET 0.17151 -41.5225 0.735469
          CHANNELS 3 Zrotation Xrotation Yrotation
          End Site
          {
            OFFSET 0 -7.69 17.5
          }
        }
      }
    }
    JOINT Spine
    {
      OFFSET 0.00853273 14.2903 0.0777264
      CHANNELS 3 Zrotation Xrotation Yrotation
      JOINT Spine1
      {
        OFFSET 0.0173944 9.71323 0.029081
        CHANNELS 3 Zrotation Xrotation Yrotation
        JOINT Spine2
        {
          OFFSET 0.0412483 10.1247 -0.0145163
          CHANNELS 3 Zrotation Xrotation Yrotation
          JOINT Spine3
          {
            OFFSET 0.0279063 9.71793 0.00755232
            CHANNELS 3 Zrotation Xrotation Yrotation
            JOINT Neck
            {
              OFFSET 0.0852486 10.3712 0.0268485
              CHANNELS 3 Zrotation Xrotation Yrotation
              JOINT Head
              {
                OFFSET 0.0739267 9.48251 0.0332551
                CHANNELS 3 Zrotation Xrotation Yrotation
                End Site
                {
                  OFFSET 0 15.95 0
                }
              }
            }
            JOINT RightShoulder
            {
              OFFSET -3.14957 6.95772 0.0300988
              CHANNELS 3 Zrotation Xrotation Yrotation
              JOINT RightArm
              {
                OFFSET -12.7513 0.0411148 0.0791701
                CHANNELS 3 Zrotation Xrotation Yrotation
                JOINT RightForeArm
                {
                  OFFSET -26.4959 0.0361336 0.259434
                  CHANNELS 3 Zrotation Xrotation Yrotation
                  JOINT RightHand
                  {
                    OFFSET -25.9829 -0.0837334 0.191464
                    CHANNELS 3 Zrotation Xrotation Yrotation
                    JOINT RightHandThumb1
                    {
                      OFFSET -2.48905 0.190105 3.12053
                      CHANNELS 3 Zrotation Xrotation Yrotation
                      JOINT RightHandThumb2
                      {
                        OFFSET -3.68274 0 0
                        CHANNELS 3 Zrotation Xrotation Yrotation
                        JOINT RightHandThumb3
                        {
                          OFFSET -2.55832 0 0
                          CHANNELS 3 Zrotation Xrotation Yrotation
                          End Site
                          {
                            OFFSET -2.194 0 0
                          }
                        }
                      }
                    }
                    JOINT RightInHandIndex
                    {
                      OFFSET -3.22368 0.508421 1.97842
                      CHANNELS 3 Zrotation Xrotation Yrotation
                      JOINT RightHandIndex1
                      {
                        OFFSET -5.21684 -0.091368 0.999158
                        CHANNELS 3 Zrotation Xrotation Yrotation
                        JOINT RightHandIndex2
                        {
                          OFFSET -3.61937 0 0
                          CHANNELS 3 Zrotation Xrotation Yrotation
                          JOINT RightHandIndex3
                          {
                            OFFSET -2.0521 0 0
                            CHANNELS 3 Zrotation Xrotation Yrotation
                            End Site
                            {
                              OFFSET -1.805 0 0
                            }
                          }
                        }
                      }
                    }
                    JOINT RightInHandMiddle
                    {
                      OFFSET -3.38211 0.517263 0.756737
                      CHANNELS 3 Zrotation Xrotation Yrotation
                      JOINT RightHandMiddle1
                      {
                        OFFSET -5.17411 -0.084 0.313895
                        CHANNELS 3 Zrotation Xrotation Yrotation
                        JOINT RightHandMiddle2
                        {
                          OFFSET -3.94947 0 0
                          CHANNELS 3 Zrotation Xrotation Yrotation
                          JOINT RightHandMiddle3
                          {
                            OFFSET -2.47579 0 0
                            CHANNELS 3 Zrotation Xrotation Yrotation
                            End Site
                            {
                              OFFSET -1.975 0 0
                            }
                          }
                        }
                      }
                    }
                    JOINT RightInHandRing
                    {
                      OFFSET -3.36516 0.537895 -0.128947
                      CHANNELS 3 Zrotation Xrotation Yrotation
                      JOINT RightHandRing1
                      {
                        OFFSET -4.63474 -0.022105 -0.478947
                        CHANNELS 3 Zrotation Xrotation Yrotation
                        JOINT RightHandRing2
                        {
                          OFFSET -3.44238 0 0
                          CHANNELS 3 Zrotation Xrotation Yrotation
                          JOINT RightHandRing3
                          {
                            OFFSET -2.3881 0 0
                            CHANNELS 3 Zrotation Xrotation Yrotation
                            End Site
                            {
                              OFFSET -1.857 0 0
                            }
                          }
                        }
                      }
                    }
                    JOINT RightInHandPinky
                    {
                      OFFSET -3.16105 0.469368 -1.20179
                      CHANNELS 3 Zrotation Xrotation Yrotation
                      JOINT RightHandPinky1
                      {
                        OFFSET -4.14105 -0.022105 -1.09053
                        CHANNELS 3 Zrotation Xrotation Yrotation
                        JOINT RightHandPinky2
                        {
                          OFFSET -2.75653 0 0
                          CHANNELS 3 Zrotation Xrotation Yrotation
                          JOINT RightHandPinky3
                          {
                            OFFSET -1.74189 0 0
                            CHANNELS 3 Zrotation Xrotation Yrotation
                            End Site
                            {
                              OFFSET -1.645 0 0
                            }
                          }
                        }
                      }
                    }
                  }
                }
              }
            }
            JOINT LeftShoulder
            {
              OFFSET 3.25273 6.91522 -0.0295735
              CHANNELS 3 Zrotation Xrotation Yrotation
              JOINT LeftArm
              {
                OFFSET 12.7785 0.0134102 -0.0213482
                CHANNELS 3 Zrotation Xrotation Yrotation
                JOINT LeftForeArm
                {
                  OFFSET 26.5044 -0.0446277 0.0404034
                  CHANNELS 3 Zrotation Xrotation Yrotation
                  JOINT LeftHand
                  {
                    OFFSET 25.9955 -0.0467726 -0.0166804
                    CHANNELS 3 Zrotation Xrotation Yrotation
                    JOINT LeftHandThumb1
                    {
                      OFFSET 2.48905 0.190105 3.12053
                      CHANNELS 3 Zrotation Xrotation Yrotation
                      JOINT LeftHandThumb2
                      {
                        OFFSET 3.68274 0 0
                        CHANNELS 3 Zrotation Xrotation Yrotation
                        JOINT LeftHandThumb3
                        {
                          OFFSET 2.55832 0 0
                          CHANNELS 3 Zrotation Xrotation Yrotation
                          End Site
                          {
                            OFFSET 2.194 0 0
                          }
                        }
                      }
                    }
                    JOINT LeftInHandIndex
                    {
                      OFFSET 3.22368 0.508421 1.97842
                      CHANNELS 3 Zrotation Xrotation Yrotation
                      JOINT LeftHandIndex1
                      {
                        OFFSET 5.21684 -0.091368 0.999158
                        CHANNELS 3 Zrotation Xrotation Yrotation
                        JOINT LeftHandIndex2
                        {
                          OFFSET 3.61937 0 0
                          CHANNELS 3 Zrotation Xrotation Yrotation
                          JOINT LeftHandIndex3
                          {
                            OFFSET 2.0521 0 0
                            CHANNELS 3 Zrotation Xrotation Yrotation
                            End Site
                            {
                              OFFSET 1.805 0 0
                            }
                          }
                        }
                      }
                    }
                    JOINT LeftInHandMiddle
                    {
                      OFFSET 3.38211 0.517263 0.756737
                      CHANNELS 3 Zrotation Xrotation Yrotation
                      JOINT LeftHandMiddle1
                      {
                        OFFSET 5.17411 -0.084 0.313895
                        CHANNELS 3 Zrotation Xrotation Yrotation
                        JOINT LeftHandMiddle2
                        {
                          OFFSET 3.94947 0 0
                          CHANNELS 3 Zrotation Xrotation Yrotation
                          JOINT LeftHandMiddle3
                          {
                            OFFSET 2.47579 0 0
                            CHANNELS 3 Zrotation Xrotation Yrotation
                            End Site
                            {
                              OFFSET 1.975 0 0
                            }
                          }
                        }
                      }
                    }
                    JOINT LeftInHandRing
                    {
                      OFFSET 3.36516 0.537895 -0.128947
                      CHANNELS 3 Zrotation Xrotation Yrotation
                      JOINT LeftHandRing1
                      {
                        OFFSET 4.63474 -0.022105 -0.478947
                        CHANNELS 3 Zrotation Xrotation Yrotation
                        JOINT LeftHandRing2
                        {
                          OFFSET 3.44238 0 0
                          CHANNELS 3 Zrotation Xrotation Yrotation
                          JOINT LeftHandRing3
                          {
                            OFFSET 2.3881 0 0
                            CHANNELS 3 Zrotation Xrotation Yrotation
                            End Site
                            {
                              OFFSET 1.857 0 0
                            }
                          }
                        }
                      }
                    }
                    JOINT LeftInHandPinky
                    {
                      OFFSET 3.16105 0.469368 -1.20179
                      CHANNELS 3 Zrotation Xrotation Yrotation
                      JOINT LeftHandPinky1
                      {
                        OFFSET 4.14105 -0.022105 -1.09053
                        CHANNELS 3 Zrotation Xrotation Yrotation
                        JOINT LeftHandPinky2
                        {
                          OFFSET 2.75653 0 0
                          CHANNELS 3 Zrotation Xrotation Yrotation
                          JOINT LeftHandPinky3
                          {
                            OFFSET 1.74189 0 0
                            CHANNELS 3 Zrotation Xrotation Yrotation
                            End Site
                            {
                              OFFSET 1.645 0 0
                            }
                          }
                        }
                      }
                    }
                  }
                }
              }
            }
          }
        }
      }
    }
  }
}
MOTION
Frames: 2
Frame Time: 0.00833333
7.500000000000000000e+02 0.000000000000000000e+00 0.000000000000000000e+00 0.000000000000000000e+00 0.000000000000000000e+00 0.000000000000000000e+00 1.156582242120525406e+00 2.449430175917955310e+00 -5.670057941263322299e-01 -4.229648339701297388e-01 -1.564559096962889750e+00 -2.830771711609879393e+00 -1.776852313362078661e-01 2.056191793763714415e+00 -2.912635727042812150e-01 -4.785669744701271933e-01 -1.361568037795432673e+00 8.107267967145110887e-01 3.180509363470278128e+00 -4.573830201399818884e-01 1.128765284405799374e+00 -1.350742501837251197e+00 -2.879905436312861777e+00 -9.245981072378554044e-01 -1.728493925818106458e+00 3.146441022394532716e+00 2.089054978580006661e-01 -1.469753678237484928e+00 -1.291791085443434461e+00 -5.929601596779446870e-01 -3.243707081904987355e-01 -2.349669622164209937e-01 -1.607935375169014247e-01 -5.279656661279635843e-01 -3.679953419156989369e-01 -2.714124118472920344e-01 1.908624252370760555e-01 1.125305249599312107e-02 -1.269480018696044765e-01 -6.617876304355981010e-02 -1.392451053800372929e+00 7.799521644593033542e+00 3.006509168134295251e+00 2.148283667434418565e+00 -6.910031272887959375e+00 9.624923893753777326e-01 -1.133158632275242272e+00 -1.212487742052893891e+00 -1.363402454148075371e+01 2.397657260983287131e+00 -4.549563735723394231e+00 -1.674298219222761475e+01 -1.103151495273161231e+01 -1.273331136557803589e+01 -2.128875277310876557e-01 1.286385820682216963e+00 -1.305628429260861534e+00 0.000000000000000000e+00 0.000000000000000000e+00 0.000000000000000000e+00 1.716412902810605983e-15 1.615661972359137198e-15 0.000000000000000000e+00 -7.554355547570551148e-16 1.430314327417080832e-15 0.000000000000000000e+00 -1.404641967698351899e-15 -2.762301835070149066e-15 -3.229302505383501453e-16 0.000000000000000000e+00 0.000000000000000000e+00 0.000000000000000000e+00 0.000000000000000000e+00 1.504024160832266175e-18 3.871138309897339551e-15 0.000000000000000000e+00 -1.300153645881951984e-15 -2.741111274566621366e-15 -1.404641967698351899e-15 -2.762301835070149066e-15 -3.229302505383501453e-16 0.000000000000000000e+00 1.783232186698278875e-16 7.223120626649940254e-16 0.000000000000000000e+00 2.095832015265133794e-15 8.010425420600655575e-15 0.000000000000000000e+00 5.150348037900645020e-16 3.750836725996033749e-15 -1.404641967698351899e-15 -2.762301835070149066e-15 -3.229302505383501453e-16 0.000000000000000000e+00 0.000000000000000000e+00 0.000000000000000000e+00 0.000000000000000000e+00 3.048562090393029040e-15 9.523139858346010714e-15 0.000000000000000000e+00 -1.480157110531563373e-15 -1.823738959510598306e-15 -1.404641967698351899e-15 -2.762301835070149066e-15 -3.229302505383501453e-16 0.000000000000000000e+00 0.000000000000000000e+00 0.000000000000000000e+00 0.000000000000000000e+00 4.017519171920932317e-15 1.103468190771900487e-14 0.000000000000000000e+00 1.551138279675156261e-16 8.917408977875851663e-16 7.581570060802207411e-01 -1.961117764393005336e+00 1.351937194908585216e+00 -1.450006836924149889e+00 2.537317952952560240e-01 2.072419698659993870e+00 6.525550970204255563e+00 -1.708474710403410768e+01 4.014930780672544941e+00 -1.469469818942681361e-01 1.267958325456143065e+00 -2.167824522658737596e+00 0.000000000000000000e+00 0.000000000000000000e+00 0.000000000000000000e+00 4.839526788118486038e-15 -2.496096088217446498e-15 0.000000000000000000e+00 -2.981503810095393533e-15 -1.886634773279595714e-15 0.000000000000000000e+00 1.589312217456869207e-15 -6.998719047339521466e-16 -1.513501038682969307e-16 0.000000000000000000e+00 0.000000000000000000e+00 0.000000000000000000e+00 0.000000000000000000e+00 -2.787082632694880730e-16 6.602601046796606506e-15 0.000000000000000000e+00 -1.387365943974937811e-15 6.619627304836732158e-16 1.589312217456869207e-15 -6.998719047339521466e-16 -1.513501038682969307e-16 0.000000000000000000e+00 -8.321212039324037520e-16 1.127856093985340344e-15 0.000000000000000000e+00 -7.807481495512138298e-16 5.795822139113113647e-15 0.000000000000000000e+00 3.011191651637032343e-16 4.236526686185579094e-15 1.589312217456869207e-15 -6.998719047339521466e-16 -1.513501038682969307e-16 0.000000000000000000e+00 0.000000000000000000e+00 0.000000000000000000e+00 0.000000000000000000e+00 -1.483860070190022593e-15 3.997530033997764931e-15 0.000000000000000000e+00 -1.498164670145139973e-15 3.417934114145305846e-15 1.589312217456869207e-15 -6.998719047339521466e-16 -1.513501038682969307e-16 0.000000000000000000e+00 0.000000000000000000e+00 0.000000000000000000e+00 0.000000000000000000e+00 -1.133311218811076419e-15 4.221986179996314932e-15 0.000000000000000000e+00 -1.787841962193709685e-15 1.729223771551629285e-15
7.500000000000000000e+02 0.000000000000000000e+00 0.000000000000000000e+00 0.000000000000000000e+00 0.000000000000000000e+00 0.000000000000000000e+00 1.179686364577089641e+00 2.532522878959001744e+00 -3.067815107518940820e-01 -7.495529825513620459e-01 -1.781560819913866389e+00 -3.085779082365915471e+00 -1.433728131295894381e-01 2.074758039517470287e+00 -4.404027391859526297e-01 -3.505179293765517401e-01 -1.521857510112027079e+00 4.845665083703269982e-01 3.001488668557058315e+00 -7.678716750642553546e-01 9.296949882063278991e-01 -1.133607866976239720e+00 -2.851213592806254304e+00 -1.056018126097116205e+00 -1.752109217049380607e+00 3.086134170054053438e+00 1.054269022621044938e-01 -1.386281147576892137e+00 -1.100827077462692705e+00 -6.597372449491745172e-01 -3.032968596443473830e-01 -1.817187322357179668e-01 -1.779349893303025232e-01 -4.933069572956021442e-01 -2.795029069800042398e-01 -2.904240981385744491e-01 1.870520598839194304e-01 1.850727988868422144e-02 -1.385696511766678074e-01 -4.983803479745487625e-02 -1.262719504702664031e+00 7.484216035372305065e+00 2.937957341806961331e+00 2.010083577125562293e+00 -6.917256300286083182e+00 9.820770999580673566e-01 -1.143774775264358112e+00 -1.158874024908062461e+00 -1.277500407589339204e+01 2.541771544036043995e+00 -4.549211443245020803e+00 -1.586127595275056201e+01 -1.117827243877620447e+01 -1.281325641892670930e+01 -4.248599295300466983e-01 1.201400878999890454e+00 -1.470216484478537255e+00 0.000000000000000000e+00 0.000000000000000000e+00 0.000000000000000000e+00 1.400430387260259736e-15 1.395164912406985290e-15 0.000000000000000000e+00 -6.950095097149765839e-16 1.210738557819069674e-15 0.000000000000000000e+00 -1.650418823186459778e-15 -2.688230312846525142e-15 -4.458310019997325227e-16 0.000000000000000000e+00 0.000000000000000000e+00 0.000000000000000000e+00 0.000000000000000000e+00 7.805863916645952047e-17 4.160607804530713724e-15 0.000000000000000000e+00 -1.330352630325406437e-15 -2.964155417636803140e-15 -1.650418823186459778e-15 -2.688230312846525142e-15 -4.458310019997325227e-16 0.000000000000000000e+00 6.295908412238835639e-17 4.652279307071339751e-16 0.000000000000000000e+00 1.521503702572718674e-15 7.705818520031680379e-15 0.000000000000000000e+00 1.045851644985249533e-16 2.291985481189940292e-15 -1.650418823186459778e-15 -2.688230312846525142e-15 -4.458310019997325227e-16 0.000000000000000000e+00 0.000000000000000000e+00 0.000000000000000000e+00 0.000000000000000000e+00 2.995071297729304645e-15 8.599968145900496885e-15 0.000000000000000000e+00 -1.435878776192964762e-15 -2.401782302036337665e-15 -1.650418823186459778e-15 -2.688230312846525142e-15 -4.458310019997325227e-16 0.000000000000000000e+00 0.000000000000000000e+00 0.000000000000000000e+00 0.000000000000000000e+00 3.530918173833984426e-15 8.800171100450655896e-15 0.000000000000000000e+00 -2.971555050683845785e-16 7.879844851236924956e-17 8.750297635834695109e-01 -1.801276881742681635e+00 1.550093557171563718e+00 -1.196231291551534959e+00 5.539589052005952086e-01 1.994571605753830745e+00 6.119349228634123783e+00 -1.692224313397973390e+01 4.696361930793167438e+00 -1.775085632339814812e-01 1.222870132407201105e+00 -2.040515220495527693e+00 0.000000000000000000e+00 0.000000000000000000e+00 0.000000000000000000e+00 4.246908481626527546e-15 -2.498714217196907373e-15 0.000000000000000000e+00 -2.239039919436833982e-15 -1.813572730172456339e-15 0.000000000000000000e+00 1.294302303269738452e-15 -8.403504186957261345e-16 -1.331236561557010850e-16 0.000000000000000000e+00 0.000000000000000000e+00 0.000000000000000000e+00 0.000000000000000000e+00 2.427392757259125743e-17 5.856986764915055786e-15 0.000000000000000000e+00 -1.124001464696727804e-15 2.475635576885938384e-16 1.294302303269738452e-15 -8.403504186957261345e-16 -1.331236561557010850e-16 0.000000000000000000e+00 -6.542221025993033144e-16 4.508112609568017920e-16 0.000000000000000000e+00 -4.969758876090014398e-16 5.246421499767453556e-15 0.000000000000000000e+00 5.572505621093258369e-16 3.427751397638286410e-15 1.294302303269738452e-15 -8.403504186957261345e-16 -1.331236561557010850e-16 0.000000000000000000e+00 0.000000000000000000e+00 0.000000000000000000e+00 0.000000000000000000e+00 -1.395942417835330885e-15 3.058949826102460498e-15 0.000000000000000000e+00 -1.518070100311998645e-15 2.799916160551377730e-15 1.294302303269738452e-15 -8.403504186957261345e-16 -1.331236561557010850e-16 0.000000000000000000e+00 0.000000000000000000e+00 0.000000000000000000e+00 0.000000000000000000e+00 -8.291892286263585870e-16 3.660498825913239456e-15 0.000000000000000000e+00 -1.568933997236476781e-15 1.415737516289335819e-15
